<?xml version="1.0" encoding="iso-8859-1"?>
<!-- Generator: Adobe Illustrator 19.0.0, SVG Export Plug-In . SVG Version: 6.00 Build 0)  -->
<svg version="1.1" id="Layer_1" xmlns="http://www.w3.org/2000/svg" xmlns:xlink="http://www.w3.org/1999/xlink" x="0px" y="0px"
	 viewBox="0 0 450 450" style="enable-background:new 0 0 450 450;" xml:space="preserve">
<g>
	<path style="fill:#222224;" d="M372.578,241.5c-0.493,4.447-1.176,8.838-2.056,13.159c-0.003,0.014-0.006,0.027-0.008,0.041
		c-4.832,23.706-15.333,45.37-30.015,63.523c-9.411,11.638-20.539,21.833-33,30.19c-10.183,6.828-21.255,12.428-33,16.592
		c-10.511,3.727-21.561,6.303-33,7.572c-5.419,0.602-10.923,0.922-16.5,0.922s-11.08-0.32-16.5-0.922
		c-11.439-1.27-22.488-3.846-33-7.572c-11.745-4.164-22.817-9.764-33-16.592c-12.461-8.357-23.589-18.553-33-30.19
		C94.818,300.07,84.317,278.406,79.485,254.7c-0.002-0.014-0.004-0.027-0.008-0.041c-0.88-4.321-1.563-8.712-2.056-13.159
		c-0.603-5.42-0.922-10.923-0.922-16.5s0.319-11.08,0.922-16.5c0.493-4.447,1.176-8.838,2.056-13.159
		c0.004-0.014,0.006-0.027,0.008-0.041c4.832-23.706,15.333-45.369,30.015-63.523c9.411-11.638,20.539-21.833,33-30.19
		c10.183-6.829,21.255-12.427,33-16.592c10.512-3.728,21.561-6.302,33-7.572c5.42-0.603,10.923-0.922,16.5-0.922
		s11.081,0.319,16.5,0.922c11.439,1.27,22.489,3.845,33,7.572c11.745,4.165,22.817,9.763,33,16.592
		c12.461,8.357,23.589,18.553,33,30.19c14.682,18.154,25.183,39.817,30.015,63.523c0.002,0.014,0.005,0.027,0.008,0.041
		c0.88,4.321,1.563,8.712,2.056,13.159c0.603,5.42,0.922,10.923,0.922,16.5S373.181,236.08,372.578,241.5z"/>
	<path style="fill:#57575C;" d="M330,210v-79.749c-8.556-10.58-18.672-19.848-30-27.446V210h-30V87.722
		c-9.556-3.388-19.601-5.729-30-6.884V210h-30V80.838c-10.399,1.155-20.444,3.496-30,6.884V210h-30V102.806
		c-11.328,7.598-21.444,16.866-30,27.446V210H80.838C80.29,214.927,80,219.93,80,225s0.29,10.073,0.838,15H120v79.748
		c8.556,10.58,18.672,19.849,30,27.446V240h30v122.278c9.556,3.388,19.601,5.73,30,6.884V240h30v129.162
		c10.399-1.154,20.444-3.496,30-6.884V240h30v107.194c11.328-7.598,21.444-16.866,30-27.446V240h39.162
		c0.548-4.927,0.838-9.93,0.838-15s-0.29-10.073-0.838-15H330z"/>
	<g>
		<path style="fill:#57575C;" d="M127.18,357.79c-0.771-0.569-1.534-1.147-2.296-1.73
			C125.591,356.708,126.358,357.286,127.18,357.79z"/>
		<path style="fill:#57575C;" d="M124.884,93.939c0.762-0.583,1.525-1.16,2.296-1.729C126.358,92.714,125.591,93.292,124.884,93.939
			z"/>
		<path style="fill:#57575C;" d="M325.116,356.06c-0.762,0.582-1.525,1.16-2.296,1.73
			C323.642,357.286,324.409,356.708,325.116,356.06z"/>
		<path style="fill:#57575C;" d="M322.813,92.204c0.776,0.573,1.545,1.154,2.31,1.74C324.411,93.293,323.64,92.71,322.813,92.204z"
			/>
	</g>
	<path style="fill:#B6002B;" d="M435,170c-6.528,0-12.067,4.178-14.128,10h-37.109c-9.837-34.656-30.748-64.695-58.641-86.056
		c-0.765-0.586-1.533-1.167-2.31-1.74c-18.849-13.92-40.747-23.935-64.499-28.824c-0.232-0.048-0.468-0.09-0.701-0.137
		C247.066,61.12,236.162,60,225,60s-22.066,1.12-32.612,3.243c-0.233,0.047-0.469,0.089-0.701,0.137
		c-23.755,4.89-45.656,14.907-64.507,28.83c-0.771,0.569-1.534,1.147-2.296,1.729C96.988,115.3,76.075,145.342,66.237,180H29.128
		c-2.06-5.822-7.6-10-14.128-10c-8.284,0-15,6.716-15,15v10v60v10c0,8.284,6.716,15,15,15c6.528,0,12.067-4.178,14.128-10h37.109
		c9.838,34.658,30.751,64.7,58.646,86.06c0.762,0.582,1.525,1.16,2.296,1.73c18.851,13.923,40.752,23.94,64.507,28.829
		c0.232,0.049,0.468,0.091,0.701,0.138C202.934,388.88,213.838,390,225,390s22.066-1.12,32.612-3.243
		c0.233-0.047,0.469-0.089,0.701-0.138c23.755-4.889,45.656-14.906,64.507-28.829c0.771-0.569,1.534-1.147,2.296-1.73
		c27.896-21.36,48.809-51.402,58.647-86.06h37.109c2.06,5.822,7.6,10,14.128,10c8.284,0,15-6.716,15-15v-10v-60v-10
		C450,176.716,443.284,170,435,170z M60.688,240H30v-30h30.688C60.241,214.942,60,219.943,60,225S60.241,235.058,60.688,240z
		 M359.162,240c-0.448,4.043-1.069,8.035-1.869,11.963c-0.003,0.012-0.005,0.025-0.007,0.037
		c-4.393,21.551-13.939,41.245-27.286,57.748c-8.556,10.58-18.672,19.849-30,27.446c-9.257,6.208-19.322,11.298-30,15.084
		c-9.556,3.388-19.601,5.73-30,6.884c-4.927,0.547-9.93,0.838-15,0.838s-10.073-0.291-15-0.838c-10.399-1.154-20.444-3.496-30-6.884
		c-10.678-3.786-20.743-8.876-30-15.084c-11.328-7.598-21.444-16.866-30-27.446C106.653,293.245,97.106,273.551,92.714,252
		c-0.002-0.012-0.004-0.025-0.007-0.037c-0.8-3.928-1.421-7.92-1.869-11.963C90.29,235.073,90,230.07,90,225s0.29-10.073,0.838-15
		c0.448-4.043,1.069-8.035,1.869-11.963c0.003-0.012,0.005-0.025,0.007-0.037c4.393-21.551,13.939-41.245,27.286-57.749
		c8.556-10.58,18.672-19.848,30-27.446c9.257-6.209,19.322-11.298,30-15.084c9.556-3.388,19.601-5.729,30-6.884
		C214.927,90.29,219.93,90,225,90s10.073,0.29,15,0.838c10.399,1.155,20.444,3.496,30,6.884c10.678,3.786,20.743,8.875,30,15.084
		c11.328,7.598,21.444,16.866,30,27.446c13.347,16.503,22.894,36.198,27.286,57.749c0.002,0.012,0.004,0.025,0.007,0.037
		c0.8,3.928,1.421,7.92,1.869,11.963c0.548,4.927,0.838,9.93,0.838,15S359.71,235.073,359.162,240z M389.311,210H420v30h-30.689
		c0.447-4.942,0.689-9.943,0.689-15S389.759,214.942,389.311,210z"/>
	<path style="fill:#EDC07B;" d="M435,170c-6.528,0-12.067,4.178-14.128,10c-0.555,1.566-0.872,3.244-0.872,5v25v30v25
		c0,1.756,0.317,3.434,0.872,5c2.06,5.822,7.6,10,14.128,10c8.284,0,15-6.716,15-15v-10v-60v-10C450,176.716,443.284,170,435,170z"
		/>
	<path style="fill:#EDC07B;" d="M15,170c-8.284,0-15,6.716-15,15v10v60v10c0,8.284,6.716,15,15,15c6.528,0,12.067-4.178,14.128-10
		c0.555-1.566,0.872-3.244,0.872-5v-25v-30v-25c0-1.756-0.317-3.434-0.872-5C27.067,174.178,21.528,170,15,170z"/>
</g>
<g>
</g>
<g>
</g>
<g>
</g>
<g>
</g>
<g>
</g>
<g>
</g>
<g>
</g>
<g>
</g>
<g>
</g>
<g>
</g>
<g>
</g>
<g>
</g>
<g>
</g>
<g>
</g>
<g>
</g>
</svg>
