<svg width="82" height="100" viewBox="0 0 82 100" fill="none" xmlns="http://www.w3.org/2000/svg">
<g clip-path="url(#clip0_5_723)">
<path d="M20.5007 29.6465C18.4687 29.6465 16.8386 27.9942 16.8386 25.954L16.8669 7.35373C16.8669 6.37627 17.2532 5.44284 17.9395 4.75378C18.6258 4.06473 19.5554 3.67686 20.529 3.67686L60.9715 3.71949C61.9436 3.71949 62.8746 4.10735 63.5609 4.79641C64.2472 5.48546 64.6335 6.42031 64.6335 7.39635L64.6052 26.0109C64.6052 28.0496 62.9596 29.6877 60.9432 29.6877C60.9276 29.7048 20.5007 29.6465 20.5007 29.6465Z" fill="white"/>
<path d="M20.529 7.36794L60.956 7.41198L60.9277 26.0123L20.5007 25.9697L20.529 7.36794ZM20.529 0C18.5834 0 16.7241 0.775722 15.3501 2.15384C13.9761 3.53337 13.2049 5.40022 13.1908 7.35373L13.1625 25.9398C13.1625 30.0045 16.4382 33.3078 20.4866 33.3078L60.9149 33.3518H60.9291C62.8747 33.3518 64.734 32.5761 66.108 31.198C67.4806 29.8184 68.2532 27.9516 68.2687 25.9981L68.297 7.41198C68.297 3.34726 65.0213 0.0426221 60.9729 0.0426221L20.529 0Z" fill="#4C2F1B"/>
<path d="M15.4647 22.1479L3.66205 36.1521V96.3061H55.8774V36.1521L65.9056 22.1479H15.4647Z" fill="white"/>
<path d="M55.8774 99.9844H3.66205C1.63151 99.9844 0 98.3335 0 96.3075V36.1535C0 35.2769 0.299983 34.4444 0.873063 33.7695L12.6757 19.7795C13.3775 18.947 14.3921 18.4724 15.4802 18.4724H65.9226C67.2952 18.4724 68.5545 19.2481 69.1842 20.4686C69.8139 21.7032 69.6993 23.1836 68.8984 24.3031L59.5565 37.3313V96.3075C59.5565 97.285 59.1702 98.2184 58.4839 98.9074C57.7806 99.6121 56.851 99.9844 55.8774 99.9844ZM7.33826 92.6306H52.2154V36.1535C52.2154 35.3778 52.4588 34.6305 52.9017 33.9997L58.7527 25.8418H17.1669L7.33826 37.5046V92.6306Z" fill="#4C2F1B"/>
<path d="M66.7646 21.8907L55.8774 37.3739V96.3075H78.3224V36.8141L66.7646 21.8907Z" fill="#EFEFEF"/>
<path d="M78.3238 100H55.8774C53.8469 100 52.2154 98.3477 52.2154 96.3231V37.3739C52.2154 36.6124 52.4446 35.8665 52.8875 35.2485L63.7746 19.7639C64.4468 18.8162 65.5193 18.2266 66.6924 18.2124C67.8654 18.1684 68.9522 18.7139 69.6682 19.6346L81.226 34.558C81.7269 35.2044 81.9986 35.9944 81.9986 36.8127V96.3061C81.9859 98.3477 80.3416 100 78.3238 100ZM59.5409 92.6306H74.6476V38.0772L66.9075 28.0794L59.5395 38.5503V92.6306H59.5409Z" fill="#4C2F1B"/>
<path d="M55.8774 37.6623H3.66205V67.5674H55.8774V37.6623Z" fill="#526FFF"/>
<path d="M55.8774 71.2429H3.66205C1.63151 71.2429 0 69.592 0 67.566V37.6623C0 35.6221 1.64566 33.9854 3.66205 33.9854H55.8774C57.9094 33.9854 59.5395 35.6378 59.5395 37.6623V67.5674C59.5409 69.6062 57.9094 71.2429 55.8774 71.2429ZM7.33826 63.8891H52.2154V41.3378H7.33826V63.8891Z" fill="#4C2F1B"/>
<path d="M21.644 46.7536H26.2655L29.8285 54.5535L33.3193 46.7252H37.8969V58.4747H35.1928V49.8707H34.9777L30.9011 58.4747H28.5691L24.5632 49.8707H24.3481V58.4889H21.6582V46.7536H21.644Z" fill="white"/>
</g>
<defs>
<clipPath id="clip0_5_723">
<rect width="82" height="100" fill="white"/>
</clipPath>
</defs>
</svg>
