<svg width="100" height="100" viewBox="0 0 100 100" fill="none" xmlns="http://www.w3.org/2000/svg">
<g clip-path="url(#clip0_3_271)">
<path d="M2.74382 59.0123V70.2292H91.4348C93.9281 70.2292 95.8303 58.8146 95.8303 58.8146L2.74382 59.0123Z" fill="#F2C05A"/>
<path d="M2.7427 72.973C1.20562 72.973 0 71.7674 0 70.2292V59.0112C0 57.4989 1.23034 56.2686 2.7427 56.2686L95.8955 56.0708C96.6697 56.0708 97.4708 56.4382 97.936 57.0068C98.4708 57.6483 98.6764 58.4281 98.5202 59.2079C96.2472 72.973 92.7989 72.973 91.5011 72.973H2.7427ZM90.6674 67.5517L90.8517 67.182C91.2674 66.3506 91.7472 64.8753 92.4079 62.3978L92.6326 61.5562L5.55169 61.7562V67.5517H6.2191H90.6674Z" fill="#4C2F1B"/>
<path d="M71.9517 3.51348C70.0494 2.52921 67.6876 2.79213 66.1135 4.23595L2.80899 59.0124H14.618V90.5663C14.618 94.3056 17.6348 97.3225 21.3742 97.3225C25.1135 97.3225 28.1303 94.3056 28.1303 90.5663V59.0124H35.1494V73.9034C35.1494 77.7079 38.2978 80.8573 42.1034 80.8573C45.9079 80.8573 49.0573 77.709 49.0573 73.9034V59.0124H59.0944C60.0787 62.7517 63.4247 65.5067 67.4258 65.5067C71.4281 65.5067 74.8382 62.7517 75.7573 59.0124L95.9618 58.9472C102.324 22.6697 80.5449 7.84381 71.9517 3.51348Z" fill="#FFDE8A"/>
<path d="M51.091 27.3921C54.9607 27.3921 58.0449 24.309 58.0449 20.4382C58.0449 17.7483 56.536 15.518 54.3708 14.3382L44.5966 22.8C45.5809 25.4899 48.073 27.3921 51.091 27.3921Z" fill="#FF5C5C"/>
<path d="M51.091 28.7697C47.6135 28.7697 44.4652 26.5393 43.2843 23.2596C43.0876 22.7348 43.218 22.1449 43.6775 21.7517L53.4517 13.2888C53.8449 12.8955 54.5011 12.8292 54.9596 13.0921C57.7146 14.536 59.3551 17.3562 59.3551 20.3742C59.4225 25.0303 55.6832 28.7697 51.091 28.7697ZM46.236 23.1944C47.2202 24.9663 49.0573 26.0809 51.091 26.0809C54.1742 26.0809 56.6674 23.5888 56.6674 20.5045C56.6674 18.7337 55.8146 17.0933 54.436 16.0438L46.236 23.1944Z" fill="#4C2F1B"/>
<path d="M74.1169 33.3618C73.3292 36.7079 75.4944 40.1191 78.8393 40.8405C81.2011 41.3652 83.4966 40.5124 84.9405 38.8067L79.4303 28.5079C76.8719 28.836 74.7068 30.6719 74.1169 33.3618Z" fill="#FF5C5C"/>
<path d="M80.2169 42.3494C79.6921 42.3494 79.1023 42.2843 78.5775 42.1528C74.5101 41.2348 71.8865 37.1674 72.8045 33.0348C73.5258 29.9517 76.0843 27.5899 79.2989 27.1966C79.8236 27.1315 80.4146 27.3933 80.6764 27.918L86.1865 38.1517C86.4494 38.6764 86.3831 39.2663 85.9899 39.6607C84.4809 41.3652 82.382 42.3494 80.2169 42.3494ZM75.4281 33.6247C75.1652 34.9371 75.3629 36.2483 76.0831 37.2978C76.8056 38.4124 77.8551 39.2 79.1663 39.4629C80.6101 39.791 82.118 39.3978 83.2989 38.4787L78.773 30.0169C77.0685 30.6067 75.8214 31.918 75.4281 33.6247Z" fill="#4C2F1B"/>
<path d="M21.3079 100C16.0697 100 11.8067 95.7382 11.8067 90.4989V61.6888H2.7427C1.57416 61.6888 0.586521 60.9933 0.226971 59.9158C-0.20449 58.8315 0.112364 57.636 1.00225 56.9023L64.3191 2.11576C65.7865 0.864071 67.6472 0.171936 69.5562 0.171936C70.8135 0.171936 72.0258 0.459577 73.1607 1.02812C80.8483 4.9034 105.406 20.5551 98.5832 59.2236C98.3753 60.5214 97.2202 61.4922 95.8944 61.4922L77.5775 61.5596L77.3921 61.9191C75.4382 65.7023 71.5933 68.0528 67.3584 68.0528C63.1247 68.0528 59.2798 65.7034 57.3247 61.9191L57.1371 61.5573H51.7337V73.7057C51.7337 79.0169 47.4135 83.3371 42.1023 83.3371C36.791 83.3371 32.4719 79.0169 32.4719 73.7068V61.5585H30.873V90.3686C30.8124 95.6764 26.5214 100 21.3079 100ZM69.4888 5.66295C68.8708 5.66295 68.2989 5.88093 67.8337 6.29441L10.0685 56.2686H14.5506C15.3112 56.2686 15.9742 56.5394 16.4157 57.0315C16.9562 57.5731 17.2281 58.2495 17.2281 59.0124V90.5663C17.2281 92.8158 19.0584 94.6461 21.3067 94.6461C23.5944 94.6461 25.3854 92.854 25.3854 90.5663V59.0113C25.3854 57.4989 26.6157 56.2686 28.1281 56.2686H35.1472C35.9067 56.2686 36.5697 56.5394 37.0124 57.0315C37.5528 57.5731 37.8247 58.2495 37.8247 59.0124V73.9034C37.8247 76.2248 39.7135 78.1135 42.0348 78.1135C44.3562 78.1135 46.245 76.2248 46.245 73.9034V58.9461C46.245 57.4326 47.4753 56.2023 48.9876 56.2023H59.0247C60.2787 56.2023 61.3371 57.0304 61.6584 58.2618C62.3292 60.8731 64.673 62.6978 67.3562 62.6978C70.0393 62.6978 72.3832 60.8731 73.0539 58.2607C73.3753 57.0315 74.4337 56.2034 75.6865 56.2034L93.5865 56.136L93.6663 55.563C98.1348 23.5742 79.0798 10.2012 70.6798 5.93598C70.273 5.75059 69.8809 5.66295 69.4888 5.66295Z" fill="#4C2F1B"/>
<path d="M95.8955 58.8146C102.456 21.882 79.627 7.25283 71.427 3.25171C69.7865 2.46407 67.818 2.72699 66.4405 3.90789L61.4551 8.23823C72.345 16.3719 90.6472 31.3955 85.0708 58.882L95.8955 58.8146Z" fill="#FFB07B"/>
<path d="M85.0719 61.5584C84.2753 61.5584 83.4854 61.182 82.9618 60.5517C82.4393 59.9258 82.2225 59.0809 82.3809 58.2888C87.1831 34.5472 73.6382 20.7528 59.7562 10.391C59.1 9.93596 58.7022 9.16517 58.6449 8.26067C58.5944 7.44494 58.9371 6.66629 59.5865 6.12584L64.582 1.78652C65.9157 0.634831 67.6022 0 69.3303 0C70.4292 0 71.5247 0.264045 72.5011 0.762921C80.3528 4.59213 105.393 20.1112 98.4528 59.2888C98.2449 60.5876 97.0899 61.5584 95.7652 61.5584H85.0719ZM69.3685 5.49101C68.9157 5.49101 68.4708 5.65506 68.1124 5.95393L65.7281 8.07191L66.3573 8.56517C72.6494 13.5067 91.7978 28.5449 88.3449 55.318L88.2483 56.0708H93.5258L93.6056 55.4955C98.1573 22.8966 78.7124 9.78989 70.1416 5.66742C69.9135 5.55393 69.6438 5.49101 69.3685 5.49101Z" fill="#4C2F1B"/>
<path d="M85.0719 58.8146C85.0719 58.8146 84.4809 66.0303 81.8573 70.2292H91.5C91.5 70.2292 94.9112 68.3921 95.8955 58.8146H85.0719Z" fill="#E2803D"/>
<path d="M81.8573 72.973C80.8472 72.973 79.9652 72.4438 79.4955 71.5573C79.0045 70.682 79.0236 69.636 79.5371 68.8124C81.4258 65.736 82.2034 60.2742 82.327 58.6023C82.4292 57.2191 83.6067 56.1371 85.0067 56.1371H95.8303C96.6337 56.1371 97.3528 56.4539 97.8067 57.0079C98.3787 57.6382 98.6157 58.3596 98.5135 59.1202C97.4011 69.6618 93.473 72.2461 92.6966 72.6573C92.382 72.8629 91.936 72.973 91.5 72.973H81.8573ZM87.4337 62.0955C87.1742 63.3944 86.8506 65.0112 86.336 66.6876L86.0708 67.5517H90.4708L90.6708 67.2663C91.1225 66.6202 91.9764 65.1258 92.6112 62.3764L92.8 61.5584H87.5416L87.4337 62.0955Z" fill="#4C2F1B"/>
<path d="M32.9854 45.1045C32.9854 47.6045 35.0112 49.6304 37.5112 49.6304C40.0112 49.6304 42.0371 47.6045 42.0371 45.1045C42.0371 42.6045 40.0112 40.5787 37.5112 40.5787C35.0112 40.5787 32.9854 42.6045 32.9854 45.1045Z" fill="#FF5C5C"/>
<path d="M37.5112 51.009C34.2966 51.009 31.6067 48.3854 31.6067 45.1056C31.6067 41.8258 34.2303 39.2011 37.5112 39.2011C40.791 39.2011 43.4146 41.8247 43.4146 45.1056C43.4146 48.3843 40.791 51.009 37.5112 51.009ZM37.5112 41.9562C35.7404 41.9562 34.3629 43.4 34.3629 45.1045C34.3629 46.8101 35.8056 48.2528 37.5112 48.2528C39.2168 48.2528 40.6595 46.809 40.6595 45.1045C40.6595 43.3989 39.282 41.9562 37.5112 41.9562Z" fill="#4C2F1B"/>
<path d="M59.8157 49.6315H50.3034C49.7787 49.6315 49.3191 49.1719 49.3191 48.6472V46.482C49.3191 45.9573 49.7787 45.4977 50.3034 45.4977H59.8157C60.3405 45.4977 60.8 45.9573 60.8 46.482V48.6472C60.8652 49.1719 60.4056 49.6315 59.8157 49.6315Z" fill="#3DE25C"/>
<path d="M58.7663 51.009H51.4191C49.5169 51.009 48.0079 49.5 48.0079 47.5978C48.0079 45.6955 49.5169 44.1865 51.4191 44.1865H58.7663C60.6685 44.1865 62.1775 45.6955 62.1775 47.5978C62.1775 49.5 60.6685 51.009 58.7663 51.009ZM51.4191 46.8753C51.0258 46.8753 50.6978 47.2034 50.6978 47.5966C50.6978 47.991 51.0258 48.3191 51.4191 48.3191H58.7663C59.1595 48.3191 59.4876 47.991 59.4876 47.5966C59.4876 47.2034 59.1595 46.8753 58.7663 46.8753H51.4191Z" fill="#4C2F1B"/>
<path d="M66.3753 39.7247L61.3236 34.2146C61.127 34.018 61.127 33.6899 61.3236 33.4932L63.6191 31.3944C63.8157 31.1977 64.1438 31.1977 64.3416 31.3944L69.3933 36.9045C69.5899 37.1011 69.5899 37.4292 69.3933 37.6258L67.0978 39.7247C66.9652 39.9224 66.5719 39.9224 66.3753 39.7247Z" fill="#3DE25C"/>
<path d="M66.8348 41.0371H66.7045C66.0483 41.0371 65.4573 40.709 64.9989 40.2495L60.6697 35.5922C60.2101 35.1326 60.0135 34.4776 60.0135 33.8214C60.0135 33.1663 60.3416 32.5753 60.8011 32.1158L62.2438 30.8034C62.7034 30.3438 63.3596 30.1472 64.0157 30.1472C64.6719 30.1472 65.2618 30.4753 65.7214 30.9349L70.0506 35.5922C70.5101 36.0517 70.7067 36.7079 70.7067 37.3641C70.7067 38.0203 70.3787 38.6101 69.9191 39.0697L68.4764 40.382C68.0157 40.7742 67.4247 41.0371 66.8348 41.0371ZM62.8989 33.8865L66.8348 38.1506L67.8843 37.1663L63.9483 32.9023L62.8989 33.8865Z" fill="#4C2F1B"/>
</g>
<defs>
<clipPath id="clip0_3_271">
<rect width="99.7674" height="100" fill="white"/>
</clipPath>
</defs>
</svg>
